<svg width="113" height="113" viewBox="0 0 113 113" fill="none" xmlns="http://www.w3.org/2000/svg">
<g filter="url(#filter0_d_311_579)">
<path fill-rule="evenodd" clip-rule="evenodd" d="M55.5 108C84.4949 108 108 84.4949 108 55.5C108 26.5051 84.4949 3 55.5 3C26.5051 3 3 26.5051 3 55.5C3 84.4949 26.5051 108 55.5 108Z" fill="white" fill-opacity="0.0550972"/>
<path fill-rule="evenodd" clip-rule="evenodd" d="M55.5 108C84.4949 108 108 84.4949 108 55.5C108 26.5051 84.4949 3 55.5 3C26.5051 3 3 26.5051 3 55.5C3 84.4949 26.5051 108 55.5 108Z" stroke="#DB5C25"/>
</g>
<path fill-rule="evenodd" clip-rule="evenodd" d="M76.2179 58.7176V55.316C76.2179 43.8291 66.855 34.4839 55.3466 34.4839C43.8381 34.4839 34.4754 43.8291 34.4754 55.316V58.7176C31.5033 58.7552 29.0967 61.1787 29.0967 64.154V71.3846C29.0967 74.3832 31.5408 76.8226 34.5449 76.8226H35.2069H38.3258H42.3509V58.7159H38.3258H37.5943V55.316C37.5943 45.5458 45.558 37.597 55.3467 37.597C65.1354 37.597 73.0991 45.5457 73.0991 55.316V58.7159H72.3675H68.3425V76.8226H72.3675H75.4865H76.1485C79.1527 76.8226 81.5967 74.3832 81.5967 71.3846V64.154C81.5967 61.1787 79.19 58.7552 76.2179 58.7176ZM38.3258 61.829H39.2319V73.7094H38.3258V61.829ZM34.5448 73.7094H35.2068V61.829H34.5448C33.2605 61.829 32.2155 62.8719 32.2155 64.1539V71.3845C32.2155 72.6665 33.2604 73.7094 34.5448 73.7094ZM72.3674 73.7094H71.4613V61.829H72.3674V73.7094ZM76.1485 73.7095C77.4328 73.7095 78.4778 72.6666 78.4778 71.3846V64.1539C78.4778 62.8719 77.4329 61.829 76.1485 61.829H75.4865V73.7095H76.1485Z" fill="#FDA8A8"/>
<defs>
<filter id="filter0_d_311_579" x="0" y="0" width="113" height="113" filterUnits="userSpaceOnUse" color-interpolation-filters="sRGB">
<feFlood flood-opacity="0" result="BackgroundImageFix"/>
<feColorMatrix in="SourceAlpha" type="matrix" values="0 0 0 0 0 0 0 0 0 0 0 0 0 0 0 0 0 0 127 0" result="hardAlpha"/>
<feOffset dx="1" dy="1"/>
<feGaussianBlur stdDeviation="2"/>
<feColorMatrix type="matrix" values="0 0 0 0 0 0 0 0 0 0 0 0 0 0 0 0 0 0 0.185233 0"/>
<feBlend mode="normal" in2="BackgroundImageFix" result="effect1_dropShadow_311_579"/>
<feBlend mode="normal" in="SourceGraphic" in2="effect1_dropShadow_311_579" result="shape"/>
</filter>
</defs>
</svg>
