<svg width="23" height="22" viewBox="0 0 23 22" fill="none" xmlns="http://www.w3.org/2000/svg">
<path fill-rule="evenodd" clip-rule="evenodd" d="M18.3424 8.85097C18.3424 10.7922 17.7039 12.5829 16.6363 14.0408L22.4102 19.8146L20.4929 21.732L14.7191 15.9581C13.2612 17.0257 11.4704 17.6643 9.52914 17.6643C4.66964 17.6643 0.71582 13.7105 0.71582 8.85097C0.71582 3.99144 4.6696 0.0375977 9.5291 0.0375977C14.3886 0.0375977 18.3424 3.99144 18.3424 8.85097ZM3.42761 8.85097C3.42761 12.2156 6.16454 14.9525 9.52913 14.9525C12.8937 14.9525 15.6306 12.2156 15.6306 8.85097C15.6306 5.48636 12.8937 2.74942 9.52913 2.74942C6.16454 2.74942 3.42761 5.48636 3.42761 8.85097Z" fill="#C7C7C7"/>
</svg>
